HIERARCHY
ROOT joint_0
{
	OFFSET 0.000000 0.000000 0.000000
	CHANNELS 6 Xposition Yposition Zposition Zrotation Yrotation Xrotation 
	JOINT joint_1
	{
		OFFSET 7.683380 1.521202 101.454956
		CHANNELS 3 Zrotation Yrotation Xrotation
		JOINT joint_2
		{
			OFFSET -4.816528 0.859650 92.807007
			CHANNELS 3 Zrotation Yrotation Xrotation
			JOINT joint_3
			{
				OFFSET -7.237778 1.114670 92.543091
				CHANNELS 3 Zrotation Yrotation Xrotation
				JOINT joint_4
				{
					OFFSET 0.479660 2.971886 127.844971
					CHANNELS 3 Zrotation Yrotation Xrotation
					JOINT joint_5
					{
						OFFSET 15.211349 9.937172 76.390015
						CHANNELS 3 Zrotation Yrotation Xrotation
						End Site
						{
							OFFSET 0.000000 0.000000 0.000000
						}
					}
				}
				JOINT joint_6
				{
					OFFSET 2.887054 -26.053230 72.331909
					CHANNELS 3 Zrotation Yrotation Xrotation
					JOINT joint_7
					{
						OFFSET 10.229767 -132.540291 -13.979004
						CHANNELS 3 Zrotation Yrotation Xrotation
						JOINT joint_8
						{
							OFFSET 17.695633 -10.988861 -262.204956
							CHANNELS 3 Zrotation Yrotation Xrotation
							JOINT joint_9
							{
								OFFSET 11.003433 -0.031860 -255.909973
								CHANNELS 3 Zrotation Yrotation Xrotation
								End Site
								{
									OFFSET 0.000000 0.000000 0.000000
								}
							}
						}
					}
				}
				JOINT joint_10
				{
					OFFSET -2.092239 29.348854 71.062988
					CHANNELS 3 Zrotation Yrotation Xrotation
					JOINT joint_11
					{
						OFFSET -11.853149 131.935837 -17.877075
						CHANNELS 3 Zrotation Yrotation Xrotation
						JOINT joint_12
						{
							OFFSET 14.084503 10.700203 -262.437012
							CHANNELS 3 Zrotation Yrotation Xrotation
							JOINT joint_13
							{
								OFFSET 48.202347 13.087273 -251.229919
								CHANNELS 3 Zrotation Yrotation Xrotation
								End Site
								{
									OFFSET 0.000000 0.000000 0.000000
								}
							}
						}
					}
				}
			}
		}
	}
	JOINT joint_14
	{
		OFFSET 4.150818 -83.296913 -102.580017
		CHANNELS 3 Zrotation Yrotation Xrotation
		JOINT joint_15
		{
			OFFSET -36.423187 -7.342392 -449.858948
			CHANNELS 3 Zrotation Yrotation Xrotation
			JOINT joint_16
			{
				OFFSET -41.100235 -7.280350 -426.202026
				CHANNELS 3 Zrotation Yrotation Xrotation
				JOINT joint_17
				{
					OFFSET 175.972961 13.159744 -75.358000
					CHANNELS 3 Zrotation Yrotation Xrotation
					End Site
					{
						OFFSET 0.000000 0.000000 0.000000
					}
				}
			}
		}
	}
	JOINT joint_18
	{
		OFFSET -9.062592 83.477568 -102.093018
		CHANNELS 3 Zrotation Yrotation Xrotation
		JOINT joint_19
		{
			OFFSET -39.145699 -6.092751 -449.645996
			CHANNELS 3 Zrotation Yrotation Xrotation
			JOINT joint_20
			{
				OFFSET -32.926178 -7.016375 -426.911980
				CHANNELS 3 Zrotation Yrotation Xrotation
				JOINT joint_21
				{
					OFFSET 176.289299 16.780729 -73.883997
					CHANNELS 3 Zrotation Yrotation Xrotation
					End Site
					{
						OFFSET 0.000000 0.000000 0.000000
					}
				}
			}
		}
	}
}
MOTION
Frames: 10
Frame Time: 0.016667
-162.010864 -46.010551 1073.477051 0.781295 -2.918291 0.597601 -0.317997 5.040770 2.878579 -0.454663 -0.938977 -0.684088 -0.389849 1.030808 0.444648 -0.720228 1.909608 2.317387 0.000000 0.000000 0.000000 2.292024 -1.071803 2.323568 -0.285705 -1.434603 -5.913459 -0.059607 0.679513 -1.317258 0.000000 0.000000 0.000000 -1.589197 -1.869372 -2.297097 -0.407924 -1.509966 -0.085758 -0.188055 9.166259 -3.957495 0.000000 0.000000 0.000000 1.605922 -3.107275 0.371967 1.465031 9.028834 -0.164409 1.666894 -3.004749 0.932713 0.000000 0.000000 0.000000 0.783153 -2.215181 0.507569 0.732684 8.638672 -0.514406 0.893962 -3.158822 0.672908 0.000000 0.000000 0.000000 
-161.958893 -46.020535 1073.458008 0.784989 -2.919885 0.597361 -0.317065 5.047182 2.882377 -0.453760 -0.940012 -0.685048 -0.388793 1.032886 0.445975 -0.719662 1.907227 2.315993 0.000000 0.000000 0.000000 2.288851 -1.072941 2.336618 -0.286167 -1.437367 -5.917994 -0.059461 0.674527 -1.314057 0.000000 0.000000 0.000000 -1.594131 -1.868817 -2.316510 -0.408451 -1.507876 -0.094825 -0.188360 9.159390 -3.955954 0.000000 0.000000 0.000000 1.604429 -3.105563 0.372397 1.463374 9.036024 -0.163610 1.665691 -3.010127 0.932596 0.000000 0.000000 0.000000 0.782403 -2.218671 0.511136 0.732208 8.655755 -0.517233 0.893891 -3.166706 0.673623 0.000000 0.000000 0.000000 
-161.902405 -46.022476 1073.439941 0.789461 -2.921446 0.595754 -0.317284 5.053097 2.889759 -0.454285 -0.941125 -0.687525 -0.389033 1.034049 0.447297 -0.719367 1.905939 2.315260 0.000000 0.000000 0.000000 2.287673 -1.073185 2.349114 -0.286946 -1.439044 -5.923794 -0.059119 0.667181 -1.306642 0.000000 0.000000 0.000000 -1.597130 -1.867022 -2.336719 -0.408921 -1.504843 -0.105062 -0.188593 9.151329 -3.953789 0.000000 0.000000 0.000000 1.602752 -3.104231 0.373248 1.461447 9.044524 -0.161584 1.664406 -3.015854 0.932470 0.000000 0.000000 0.000000 0.781391 -2.222422 0.515086 0.731371 8.673532 -0.518648 0.893598 -3.174311 0.674219 0.000000 0.000000 0.000000 
-161.846710 -46.020493 1073.420044 0.792883 -2.922679 0.594148 -0.317480 5.060663 2.896042 -0.454677 -0.943139 -0.688867 -0.389260 1.036240 0.448598 -0.718727 1.902485 2.314220 0.000000 0.000000 0.000000 2.285576 -1.074722 2.361149 -0.287571 -1.442041 -5.928859 -0.058826 0.660113 -1.300361 0.000000 0.000000 0.000000 -1.600911 -1.866219 -2.357196 -0.409331 -1.502606 -0.114776 -0.188737 9.144289 -3.951797 0.000000 0.000000 0.000000 1.601357 -3.104777 0.373435 1.459620 9.055797 -0.158702 1.663401 -3.023079 0.932572 0.000000 0.000000 0.000000 0.780849 -2.226774 0.518991 0.731023 8.691964 -0.520429 0.893772 -3.181765 0.674995 0.000000 0.000000 0.000000 
-161.793365 -46.016945 1073.399048 0.794215 -2.923850 0.592575 -0.318063 5.071235 2.901069 -0.455418 -0.945130 -0.689891 -0.389934 1.038032 0.448977 -0.717915 1.899138 2.312288 0.000000 0.000000 0.000000 2.286815 -1.077880 2.374772 -0.287960 -1.446423 -5.933654 -0.058701 0.654904 -1.297727 0.000000 0.000000 0.000000 -1.604064 -1.866740 -2.378369 -0.409393 -1.501352 -0.120952 -0.188573 9.139736 -3.949465 0.000000 0.000000 0.000000 1.600835 -3.107697 0.373604 1.458593 9.071100 -0.155930 1.663323 -3.031734 0.933170 0.000000 0.000000 0.000000 0.780738 -2.231314 0.523603 0.731310 8.710704 -0.523829 0.894436 -3.189034 0.675957 0.000000 0.000000 0.000000 
-161.739639 -46.010258 1073.375977 0.794518 -2.924815 0.591201 -0.318285 5.083528 2.903947 -0.455602 -0.948210 -0.689086 -0.390293 1.041971 0.448704 -0.717112 1.894379 2.311288 0.000000 0.000000 0.000000 2.285889 -1.083018 2.388849 -0.288083 -1.453043 -5.937964 -0.058682 0.651561 -1.297387 0.000000 0.000000 0.000000 -1.610470 -1.868966 -2.399590 -0.409181 -1.501160 -0.125495 -0.188074 9.137217 -3.946547 0.000000 0.000000 0.000000 1.600682 -3.112446 0.373016 1.457752 9.089576 -0.152402 1.663619 -3.041877 0.934035 0.000000 0.000000 0.000000 0.780975 -2.236101 0.528272 0.732024 8.729783 -0.528053 0.895465 -3.196448 0.677084 0.000000 0.000000 0.000000 
-161.692764 -45.999847 1073.352051 0.793750 -2.925252 0.589556 -0.318452 5.098882 2.908596 -0.455955 -0.951737 -0.691196 -0.390551 1.045940 0.448932 -0.716277 1.889433 2.310230 0.000000 0.000000 0.000000 2.285705 -1.089005 2.404411 -0.288338 -1.460643 -5.943821 -0.058644 0.646485 -1.296738 0.000000 0.000000 0.000000 -1.615742 -1.872233 -2.420989 -0.409150 -1.502129 -0.129537 -0.187845 9.133389 -3.944642 0.000000 0.000000 0.000000 1.600691 -3.119186 0.372841 1.457105 9.110090 -0.149547 1.664112 -3.053172 0.935068 0.000000 0.000000 0.000000 0.781794 -2.242574 0.532858 0.733240 8.750290 -0.531881 0.897053 -3.203774 0.678434 0.000000 0.000000 0.000000 
-161.660416 -45.988266 1073.324951 0.793642 -2.925290 0.588388 -0.319235 5.120670 2.910783 -0.456659 -0.958152 -0.692303 -0.391233 1.052232 0.450161 -0.715307 1.881319 2.310510 0.000000 0.000000 0.000000 2.285478 -1.096720 2.420928 -0.288932 -1.470253 -5.952949 -0.058492 0.637420 -1.293847 0.000000 0.000000 0.000000 -1.617294 -1.877596 -2.442877 -0.409744 -1.505846 -0.134796 -0.188355 9.124666 -3.944498 0.000000 0.000000 0.000000 1.600255 -3.127581 0.372878 1.456136 9.131649 -0.148471 1.664175 -3.065954 0.936028 0.000000 0.000000 0.000000 0.782882 -2.252077 0.536377 0.734464 8.774029 -0.534638 0.898839 -3.211136 0.679868 0.000000 0.000000 0.000000 
-161.638840 -45.973743 1073.296997 0.793165 -2.924679 0.587302 -0.320231 5.146187 2.912543 -0.457511 -0.964979 -0.693248 -0.392147 1.060450 0.450800 -0.714226 1.871307 2.311426 0.000000 0.000000 0.000000 2.285490 -1.106193 2.439966 -0.289804 -1.482013 -5.965556 -0.058273 0.625514 -1.289638 0.000000 0.000000 0.000000 -1.616472 -1.885062 -2.465143 -0.410667 -1.511989 -0.139986 -0.189271 9.112833 -3.945205 0.000000 0.000000 0.000000 1.599678 -3.137861 0.373482 1.455161 9.154376 -0.149044 1.664116 -3.079733 0.937011 0.000000 0.000000 0.000000 0.784569 -2.264279 0.539379 0.736127 8.800325 -0.536869 0.901177 -3.218141 0.681496 0.000000 0.000000 0.000000 
-161.615326 -45.958832 1073.269043 0.791648 -2.923059 0.585909 -0.320271 5.169902 2.913583 -0.457385 -0.970488 -0.694177 -0.392076 1.066493 0.450990 -0.713431 1.863579 2.312287 0.000000 0.000000 0.000000 2.283508 -1.114546 2.459520 -0.290647 -1.492851 -5.977420 -0.058031 0.614369 -1.284855 0.000000 0.000000 0.000000 -1.619104 -1.891451 -2.486441 -0.411532 -1.516723 -0.145863 -0.190156 9.100954 -3.945949 0.000000 0.000000 0.000000 1.599339 -3.149160 0.374023 1.454351 9.177086 -0.148941 1.664268 -3.093972 0.938117 0.000000 0.000000 0.000000 0.786563 -2.277059 0.542543 0.738069 8.825981 -0.538552 0.903799 -3.225295 0.683257 0.000000 0.000000 0.000000 
